REM DIRINDEX 1\2\6,1\2\7,1\2\8,1\3\9,1\3\10,1\3\11,1\4\12,1\4\13,1\4\14,1\5\15,1\5\16,1\5\17,1\5\18
REM DIRNAME folder01,folder02,folder03,folder04,folder05,folder06,folder07,folder08,folder09,folder10,folder11,folder12,folder13,folder14,folder15,folder16,folder17,folder18
TITLE ""
FILE "" MP3
  TRACK 01 AUDIO
    TITLE "16:cjc019_5166"
    INDEX 01 00:00:00
  TRACK 02 AUDIO
    TITLE "0:"
    INDEX 01 00:01:11
  TRACK 03 AUDIO
    TITLE "18:cjc019_5167"
    INDEX 01 00:01:62
  TRACK 04 AUDIO
    TITLE "0:"
    INDEX 01 00:04:05
  TRACK 05 AUDIO
    TITLE "17:cjc019_5168"
    INDEX 01 00:04:56
  TRACK 06 AUDIO
    TITLE "0:"
    INDEX 01 00:06:04
  TRACK 07 AUDIO
    TITLE "16:cjc019_5169"
    INDEX 01 00:07:62
  TRACK 08 AUDIO
    TITLE "0:"
    INDEX 01 00:08:64
  TRACK 09 AUDIO
    TITLE "18:cjc019_5170"
    INDEX 01 00:09:44
  TRACK 10 AUDIO
    TITLE "0:"
    INDEX 01 00:10:53
  TRACK 11 AUDIO
    TITLE "17:cjc019_5171"
    INDEX 01 00:11:27
  TRACK 12 AUDIO
    TITLE "0:"
    INDEX 01 00:12:34
  TRACK 13 AUDIO
    TITLE "16:cjc019_5172"
    INDEX 01 00:14:15
  TRACK 14 AUDIO
    TITLE "0:"
    INDEX 01 00:15:27
  TRACK 15 AUDIO
    TITLE "18:cjc019_5173"
    INDEX 01 00:15:74
  TRACK 16 AUDIO
    TITLE "0:"
    INDEX 01 00:17:08
  TRACK 17 AUDIO
    TITLE "17:cjc019_5174"
    INDEX 01 00:17:61
  TRACK 18 AUDIO
    TITLE "0:"
    INDEX 01 00:18:74
  TRACK 19 AUDIO
    TITLE "16:cjc019_5175"
    INDEX 01 00:20:51
  TRACK 20 AUDIO
    TITLE "0:"
    INDEX 01 00:22:07
  TRACK 21 AUDIO
    TITLE "18:cjc019_5176"
    INDEX 01 00:22:64
  TRACK 22 AUDIO
    TITLE "0:"
    INDEX 01 00:25:17
  TRACK 23 AUDIO
    TITLE "17:cjc019_5177"
    INDEX 01 00:25:74
  TRACK 24 AUDIO
    TITLE "0:"
    INDEX 01 00:27:28
  TRACK 25 AUDIO
    TITLE "16:cjc019_5178"
    INDEX 01 00:29:09
  TRACK 26 AUDIO
    TITLE "0:"
    INDEX 01 00:30:26
  TRACK 27 AUDIO
    TITLE "18:cjc019_5179"
    INDEX 01 00:31:08
  TRACK 28 AUDIO
    TITLE "0:"
    INDEX 01 00:33:24
  TRACK 29 AUDIO
    TITLE "17:cjc019_5180"
    INDEX 01 00:33:73
  TRACK 30 AUDIO
    TITLE "0:"
    INDEX 01 00:35:21
  TRACK 31 AUDIO
    TITLE "16:cjc019_5181"
    INDEX 01 00:37:01
  TRACK 32 AUDIO
    TITLE "0:"
    INDEX 01 00:38:26
  TRACK 33 AUDIO
    TITLE "18:cjc019_5182"
    INDEX 01 00:39:07
  TRACK 34 AUDIO
    TITLE "0:"
    INDEX 01 00:39:74
  TRACK 35 AUDIO
    TITLE "17:cjc019_5183"
    INDEX 01 00:40:46
  TRACK 36 AUDIO
    TITLE "0:"
    INDEX 01 00:41:67
  TRACK 37 AUDIO
    TITLE "16:cjc019_5184"
    INDEX 01 00:43:58
  TRACK 38 AUDIO
    TITLE "0:"
    INDEX 01 00:44:65
  TRACK 39 AUDIO
    TITLE "18:cjc019_5185"
    INDEX 01 00:45:49
  TRACK 40 AUDIO
    TITLE "0:"
    INDEX 01 00:48:38
  TRACK 41 AUDIO
    TITLE "17:cjc019_5186"
    INDEX 01 00:49:20
  TRACK 42 AUDIO
    TITLE "0:"
    INDEX 01 00:50:31
  TRACK 43 AUDIO
    TITLE "16:cjc019_5187"
    INDEX 01 00:52:16
  TRACK 44 AUDIO
    TITLE "0:"
    INDEX 01 00:53:43
  TRACK 45 AUDIO
    TITLE "18:cjc019_5188"
    INDEX 01 00:54:23
  TRACK 46 AUDIO
    TITLE "0:"
    INDEX 01 00:55:38
  TRACK 47 AUDIO
    TITLE "17:cjc019_5189"
    INDEX 01 00:56:18
  TRACK 48 AUDIO
    TITLE "0:"
    INDEX 01 00:57:52
  TRACK 49 AUDIO
    TITLE "16:cjc019_5190"
    INDEX 01 00:59:34
  TRACK 50 AUDIO
    TITLE "0:"
    INDEX 01 01:00:47
  TRACK 51 AUDIO
    TITLE "18:cjc019_5191"
    INDEX 01 01:01:31
  TRACK 52 AUDIO
    TITLE "0:"
    INDEX 01 01:03:10
  TRACK 53 AUDIO
    TITLE "17:cjc019_5192"
    INDEX 01 01:03:65
  TRACK 54 AUDIO
    TITLE "0:"
    INDEX 01 01:05:01
  TRACK 55 AUDIO
    TITLE "16:cjc019_5193"
    INDEX 01 01:06:69
  TRACK 56 AUDIO
    TITLE "0:"
    INDEX 01 01:08:13
  TRACK 57 AUDIO
    TITLE "18:cjc019_5194"
    INDEX 01 01:08:72
  TRACK 58 AUDIO
    TITLE "0:"
    INDEX 01 01:11:35
  TRACK 59 AUDIO
    TITLE "17:cjc019_5195"
    INDEX 01 01:12:11
  TRACK 60 AUDIO
    TITLE "0:"
    INDEX 01 01:13:34
  TRACK 61 AUDIO
    TITLE "16:cjc019_5196"
    INDEX 01 01:15:19
  TRACK 62 AUDIO
    TITLE "0:"
    INDEX 01 01:16:38
  TRACK 63 AUDIO
    TITLE "18:cjc019_5197"
    INDEX 01 01:17:20
  TRACK 64 AUDIO
    TITLE "0:"
    INDEX 01 01:18:31
  TRACK 65 AUDIO
    TITLE "17:cjc019_5198"
    INDEX 01 01:19:11
  TRACK 66 AUDIO
    TITLE "0:"
    INDEX 01 01:20:32
  TRACK 67 AUDIO
    TITLE "16:cjc019_5199"
    INDEX 01 01:22:15
  TRACK 68 AUDIO
    TITLE "0:"
    INDEX 01 01:23:05
  TRACK 69 AUDIO
    TITLE "18:cjc019_5200"
    INDEX 01 01:23:71
  TRACK 70 AUDIO
    TITLE "0:"
    INDEX 01 01:26:74
  TRACK 71 AUDIO
    TITLE "17:cjc019_5201"
    INDEX 01 01:27:48
  TRACK 72 AUDIO
    TITLE "0:"
    INDEX 01 01:28:39
  TRACK 73 AUDIO
    TITLE "16:cjc019_5202"
    INDEX 01 01:30:42
  TRACK 74 AUDIO
    TITLE "0:"
    INDEX 01 01:32:04
  TRACK 75 AUDIO
    TITLE "18:cjc019_5203"
    INDEX 01 01:32:68
  TRACK 76 AUDIO
    TITLE "0:"
    INDEX 01 01:34:10
  TRACK 77 AUDIO
    TITLE "17:cjc019_5204"
    INDEX 01 01:34:61
  TRACK 78 AUDIO
    TITLE "0:"
    INDEX 01 01:36:25
  TRACK 79 AUDIO
    TITLE "16:cjc019_5205"
    INDEX 01 01:38:12
  TRACK 80 AUDIO
    TITLE "0:"
    INDEX 01 01:39:21
  TRACK 81 AUDIO
    TITLE "18:cjc019_5206"
    INDEX 01 01:40:07
  TRACK 82 AUDIO
    TITLE "0:"
    INDEX 01 01:43:19
  TRACK 83 AUDIO
    TITLE "17:cjc019_5207"
    INDEX 01 01:43:72
  TRACK 84 AUDIO
    TITLE "0:"
    INDEX 01 01:45:04
  TRACK 85 AUDIO
    TITLE "16:cjc019_5208"
    INDEX 01 01:46:63
  TRACK 86 AUDIO
    TITLE "0:"
    INDEX 01 01:48:20
  TRACK 87 AUDIO
    TITLE "18:cjc019_5209"
    INDEX 01 01:49:02
  TRACK 88 AUDIO
    TITLE "0:"
    INDEX 01 01:50:21
  TRACK 89 AUDIO
    TITLE "17:cjc019_5210"
    INDEX 01 01:50:70
  TRACK 90 AUDIO
    TITLE "0:"
    INDEX 01 01:52:26
  TRACK 91 AUDIO
    TITLE "16:cjc019_5211"
    INDEX 01 01:54:09
  TRACK 92 AUDIO
    TITLE "0:"
    INDEX 01 01:55:63
  TRACK 93 AUDIO
    TITLE "18:cjc019_5212"
    INDEX 01 01:56:43
  TRACK 94 AUDIO
    TITLE "0:"
    INDEX 01 01:57:62
  TRACK 95 AUDIO
    TITLE "17:cjc019_5213"
    INDEX 01 01:58:38
  TRACK 96 AUDIO
    TITLE "0:"
    INDEX 01 02:00:25
  TRACK 97 AUDIO
    TITLE "16:cjc019_5214"
    INDEX 01 02:02:11
  TRACK 98 AUDIO
    TITLE "0:"
    INDEX 01 02:03:20
  TRACK 99 AUDIO
    TITLE "18:cjc019_5215"
    INDEX 01 02:04:06
  TRACK 100 AUDIO
    TITLE "0:"
    INDEX 01 02:06:26
  TRACK 101 AUDIO
    TITLE "17:cjc019_5216"
    INDEX 01 02:07:04
  TRACK 102 AUDIO
    TITLE "0:"
    INDEX 01 02:08:19
  TRACK 103 AUDIO
    TITLE "16:cjc019_5217"
    INDEX 01 02:10:08
  TRACK 104 AUDIO
    TITLE "0:"
    INDEX 01 02:11:35
  TRACK 105 AUDIO
    TITLE "18:cjc019_5218"
    INDEX 01 02:12:19
  TRACK 106 AUDIO
    TITLE "0:"
    INDEX 01 02:15:05
  TRACK 107 AUDIO
    TITLE "17:cjc019_5219"
    INDEX 01 02:15:58
  TRACK 108 AUDIO
    TITLE "0:"
    INDEX 01 02:17:14
